<?xml version="1.0" encoding="UTF-8" standalone="no"?>
<!-- Created with Inkscape (http://www.inkscape.org/) -->

<svg
   xmlns:dc="http://purl.org/dc/elements/1.1/"
   xmlns:cc="http://creativecommons.org/ns#"
   xmlns:rdf="http://www.w3.org/1999/02/22-rdf-syntax-ns#"
   xmlns:svg="http://www.w3.org/2000/svg"
   xmlns="http://www.w3.org/2000/svg"
   xmlns:sodipodi="http://sodipodi.sourceforge.net/DTD/sodipodi-0.dtd"
   xmlns:inkscape="http://www.inkscape.org/namespaces/inkscape"
   version="1.1"
   id="svg11447"
   xml:space="preserve"
   width="880"
   height="880"
   viewBox="0 0 880 880"
   sodipodi:docname="cloud-pd-freesvg.org.svg"
   inkscape:version="0.92.4 (5da689c313, 2019-01-14)"><metadata
     id="metadata11453"><rdf:RDF><cc:Work
         rdf:about=""><dc:format>image/svg+xml</dc:format><dc:type
           rdf:resource="http://purl.org/dc/dcmitype/StillImage" /><dc:title /></cc:Work></rdf:RDF></metadata><defs
     id="defs11451"><clipPath
       clipPathUnits="userSpaceOnUse"
       id="clipPath11463"><path
         d="M 0,660 H 660 V 0 H 0 Z"
         id="path11461"
         inkscape:connector-curvature="0" /></clipPath></defs><sodipodi:namedview
     pagecolor="#ffffff"
     bordercolor="#666666"
     borderopacity="1"
     objecttolerance="10"
     gridtolerance="10"
     guidetolerance="10"
     inkscape:pageopacity="0"
     inkscape:pageshadow="2"
     inkscape:window-width="1920"
     inkscape:window-height="1018"
     id="namedview11449"
     showgrid="false"
     inkscape:zoom="0.68374283"
     inkscape:cx="345.63993"
     inkscape:cy="374.74576"
     inkscape:window-x="-8"
     inkscape:window-y="-8"
     inkscape:window-maximized="1"
     inkscape:current-layer="g11455" /><g
     id="g11455"
     inkscape:groupmode="layer"
     inkscape:label="cloud-pd"
     transform="matrix(1.3333333,0,0,-1.3333333,0,880)"><g
       id="g11457"><g
         id="g11459"
         clip-path="url(#clipPath11463)"><path
           d="m 268.07,470.457 -0.395,-0.291 c 0.084,0.06 0.154,0.129 0.237,0.191 0.052,0.038 0.107,0.06 0.158,0.1 m 160.61,52.691 c 0,0 -0.094,-0.076 -0.113,-0.09 0.014,0.012 0.033,0.031 0.047,0.043 0.021,0.018 0.045,0.028 0.066,0.047 m -247.836,43.456 c -7.885,-11.826 -11.775,-25.167 -11.775,-38.467 0,-8.289 1.519,-16.56 4.514,-24.443 -2.883,-4.835 -5.858,-9.821 -5.858,-9.821 -2.038,-3.418 -3.818,-7.031 -5.474,-10.68 -33.284,-3.283 -63.193,-21.364 -81.422,-50.015 -1.358,-2.133 -2.498,-4.379 -3.701,-6.594 -0.405,-0.464 -0.783,-0.955 -1.154,-1.453 -24.645,-9.467 -41.341,-30.946 -42.481,-56.048 -0.056,-1.023 -0.083,-2.042 -0.083,-3.058 0,-27.465 19.491,-51.805 46.438,-57.193 l 0.892,-0.177 0.907,-0.103 c 1.359,-0.149 2.711,-0.168 4.066,-0.225 2.95,-3.318 5.982,-6.726 5.982,-6.726 1.883,-2.1 4.011,-3.953 6.049,-5.897 -7.409,-14.779 -11.334,-31.029 -11.334,-47.945 0,-57.322 45.138,-104.17 101.72,-107.193 5.548,-7.568 11.988,-14.422 19.377,-20.355 0.004,-0.002 0.232,-0.175 0.549,-0.415 2.198,-16.921 9.423,-32.778 20.422,-43.84 11.36,-11.429 25.896,-17.468 42.036,-17.468 h 0.958 l 0.952,0.085 c 16.919,1.538 31.247,8.408 41.433,19.862 l 0.226,0.253 0.216,0.262 c 7.723,9.27 11.736,20.34 12.267,31.554 1.647,0.877 4.348,2.318 4.348,2.318 3.753,2.004 7.374,4.421 11.071,7.387 8.466,6.794 15.864,14.998 21.95,24.038 9.875,0.589 19.526,2.521 28.836,5.764 25.298,-24.52 63.286,-39.001 98.789,-18.846 25.74,14.126 40.923,40.362 40.923,67.539 0,0.815 -0.168,1.628 -0.195,2.443 l 0.065,-0.037 6.704,26.699 c 2.075,8.405 3.125,17.091 3.125,25.814 0,2.156 -0.185,4.309 -0.316,6.463 6.979,5.305 13.353,11.348 18.898,18.253 0.002,0.007 0.49,0.643 1.17,1.536 15.402,2.828 34.56,7.728 47.581,26.669 l 0.169,0.247 c 6.949,10.425 10.4,21.858 10.4,33.03 0,12.438 -4.276,24.553 -12.77,34.588 l -0.566,0.67 -0.621,0.621 c -5.51,5.509 -13.793,13.683 -27.475,15.867 -1.769,0.362 -3.581,0.421 -5.38,0.563 -2.439,4.576 -5.121,9.609 -5.121,9.609 -1.989,3.729 -4.401,7.345 -7.374,11.058 -17.963,22.375 -43.585,36.397 -71.641,39.571 0.62,4.694 1.038,9.426 1.038,14.234 0,19.951 -5.424,39.011 -15.66,55.783 0.171,0.646 0.351,1.324 0.351,1.324 0,0 -0.356,-1.136 -0.391,-1.252 -10e-4,0 -10e-4,10e-4 -0.004,0.003 1.993,5.761 2.959,11.781 2.959,17.822 0,18.143 -8.647,36.462 -23.884,48.431 -21.011,16.508 -51.207,14.601 -70.235,-4.435 l -0.569,-0.569 -0.526,-0.61 c -3.478,-4.057 -6.115,-8.584 -7.947,-13.359 -4.352,1.8 -9.187,2.503 -14.005,1.899 l -1.108,-0.138 -1.088,-0.255 c -3.906,-0.916 -7.816,-2.074 -11.621,-3.433 -10.864,-3.892 -20.926,-9.578 -29.921,-16.626 -10.172,24.305 -33.292,42.837 -61.483,47.672 -29.181,5.723 -56.901,-6.31 -74.198,-32.255"
           style="fill:#ffffff;fill-opacity:1;fill-rule:nonzero;stroke:none"
           id="path11465"
           inkscape:connector-curvature="0" /><path
           d="m 268.07,470.457 -0.395,-0.291 c 0.084,0.06 0.154,0.129 0.237,0.191 0.052,0.038 0.107,0.06 0.158,0.1 z m 160.61,52.691 c 0,0 -0.094,-0.076 -0.113,-0.09 0.014,0.012 0.033,0.031 0.047,0.043 0.021,0.018 0.045,0.028 0.066,0.047 z m -247.836,43.456 c -7.885,-11.826 -11.775,-25.167 -11.775,-38.467 0,-8.289 1.519,-16.56 4.514,-24.443 -2.883,-4.835 -5.858,-9.821 -5.858,-9.821 -2.038,-3.418 -3.818,-7.031 -5.474,-10.68 -33.284,-3.283 -63.193,-21.364 -81.422,-50.015 -1.358,-2.133 -2.498,-4.379 -3.701,-6.594 -0.405,-0.464 -0.783,-0.955 -1.154,-1.453 -24.645,-9.467 -41.341,-30.946 -42.481,-56.048 -0.056,-1.023 -0.083,-2.042 -0.083,-3.058 0,-27.465 19.491,-51.805 46.438,-57.193 l 0.892,-0.177 0.907,-0.103 c 1.359,-0.149 2.711,-0.168 4.066,-0.225 2.95,-3.318 5.982,-6.726 5.982,-6.726 1.883,-2.1 4.011,-3.953 6.049,-5.897 -7.409,-14.779 -11.334,-31.029 -11.334,-47.945 0,-57.322 45.138,-104.17 101.72,-107.193 5.548,-7.568 11.988,-14.422 19.377,-20.355 0.004,-0.002 0.232,-0.175 0.549,-0.415 2.198,-16.921 9.423,-32.778 20.422,-43.84 11.36,-11.429 25.896,-17.468 42.036,-17.468 h 0.958 l 0.952,0.085 c 16.919,1.538 31.247,8.408 41.433,19.862 l 0.226,0.253 0.216,0.262 c 7.723,9.27 11.736,20.34 12.267,31.554 1.647,0.877 4.348,2.318 4.348,2.318 3.753,2.004 7.374,4.421 11.071,7.387 8.466,6.794 15.864,14.998 21.95,24.038 9.875,0.589 19.526,2.521 28.836,5.764 25.298,-24.52 63.286,-39.001 98.789,-18.846 25.74,14.126 40.923,40.362 40.923,67.539 0,0.815 -0.168,1.628 -0.195,2.443 l 0.065,-0.037 6.704,26.699 c 2.075,8.405 3.125,17.091 3.125,25.814 0,2.156 -0.185,4.309 -0.316,6.463 6.979,5.305 13.353,11.348 18.898,18.253 0.002,0.007 0.49,0.643 1.17,1.536 15.402,2.828 34.56,7.728 47.581,26.669 l 0.169,0.247 c 6.949,10.425 10.4,21.858 10.4,33.03 0,12.438 -4.276,24.553 -12.77,34.588 l -0.566,0.67 -0.621,0.621 c -5.51,5.509 -13.793,13.683 -27.475,15.867 -1.769,0.362 -3.581,0.421 -5.38,0.563 -2.439,4.576 -5.121,9.609 -5.121,9.609 -1.989,3.729 -4.401,7.345 -7.374,11.058 -17.963,22.375 -43.585,36.397 -71.641,39.571 0.62,4.694 1.038,9.426 1.038,14.234 0,19.951 -5.424,39.011 -15.66,55.783 0.171,0.646 0.351,1.324 0.351,1.324 0,0 -0.356,-1.136 -0.391,-1.252 -10e-4,0 -10e-4,10e-4 -0.004,0.003 1.993,5.761 2.959,11.781 2.959,17.822 0,18.143 -8.647,36.462 -23.884,48.431 -21.011,16.508 -51.207,14.601 -70.235,-4.435 l -0.569,-0.569 -0.526,-0.61 c -3.478,-4.057 -6.115,-8.584 -7.947,-13.359 -4.352,1.8 -9.187,2.503 -14.005,1.899 l -1.108,-0.138 -1.088,-0.255 c -3.906,-0.916 -7.816,-2.074 -11.621,-3.433 -10.864,-3.892 -20.926,-9.578 -29.921,-16.626 -10.172,24.305 -33.292,42.837 -61.483,47.672 -29.181,5.723 -56.901,-6.31 -74.198,-32.255 z"
           style="fill:none;stroke:#176fc1;stroke-width:1.12;stroke-linecap:butt;stroke-linejoin:miter;stroke-miterlimit:4;stroke-dasharray:none;stroke-opacity:1"
           id="path11467"
           inkscape:connector-curvature="0" /><path
           d="m 591.201,360.774 c -4.596,4.591 -9.189,9.186 -16.541,10.107 -12.864,2.756 -28.486,-5.516 -27.562,-20.215 0,-5.514 2.752,-9.188 7.348,-11.944 3.675,-0.923 6.435,0 9.189,2.756 0,0.916 0,2.753 -0.359,4.096 -1.568,3.028 0.201,6.775 5.734,7.616 7.49,0.232 11.163,-7.12 12.086,-12.631 0,-9.189 -5.517,-17.459 -14.705,-21.136 -16.541,-5.512 -33.998,5.515 -39.512,21.136 -6.433,21.133 7.351,39.509 22.645,51.248 -1.459,2.733 -3.249,5.325 -5.222,7.793 -15.833,19.724 -40.141,32.35 -67.403,32.35 -5.365,0 -10.618,-0.492 -15.713,-1.429 5.057,10.98 7.878,23.198 7.878,36.081 0,19.591 -6.522,37.66 -17.514,52.151 1.346,3.962 1.864,6.579 2.963,10.565 5.292,15.228 -1.142,32.688 -14.007,42.795 -12.865,10.106 -31.241,8.272 -42.267,-2.758 -5.516,-6.432 -7.352,-14.703 -4.595,-22.97 2.758,-8.27 13.784,-13.783 21.133,-7.351 3.675,2.757 -0.92,8.269 -2.754,11.025 -2.758,9.189 10.105,11.947 16.538,7.351 7.35,-5.512 9.189,-13.782 8.267,-22.054 -3.672,-16.537 -21.131,-24.808 -36.755,-22.053 -18.375,2.76 -28.482,18.378 -32.158,35.837 -0.918,0.919 -2.755,1.839 -5.026,1.555 -3.18,-0.747 -6.291,-1.671 -9.326,-2.757 -19.085,-6.834 -35.049,-20.201 -45.233,-37.399 -1.148,0.774 -2.317,1.52 -3.502,2.241 -1.17,3.281 -2.371,6.413 -4.158,16.765 -3.045,25.351 -24.155,44.349 -49.487,48.571 -21.109,4.222 -40.108,-4.222 -52.775,-23.22 -12.665,-19 -10.554,-42.22 4.223,-59.107 12.664,-14.778 35.886,-21.11 52.774,-8.445 14.776,10.555 21.11,27.444 14.776,44.331 -4.22,8.444 -10.554,14.777 -21.109,16.888 -12.666,2.11 -25.331,-2.111 -29.554,-14.776 -2.111,-8.446 0,-14.778 6.334,-21.111 6.332,-4.221 12.665,-4.221 16.888,2.112 4.221,6.332 -4.223,10.553 -8.445,8.443 0,8.444 4.222,12.665 10.555,12.665 16.888,-2.109 18.999,-18.998 10.555,-31.664 -10.555,-14.777 -29.553,-12.665 -42.22,-2.11 -12.665,12.666 -14.777,31.665 -4.222,46.441 16.889,25.331 50.664,23.22 69.663,2.11 10.554,-14.777 14.776,-35.885 8.443,-52.774 -16.888,-40.108 -71.774,-42.219 -101.215,-14.84 -1.884,-3.159 -3.57,-6.449 -5.047,-9.851 -1.475,-3.402 -2.737,-6.918 -3.77,-10.531 -1.304,0.055 -2.61,0.091 -3.921,0.091 -31.318,0 -58.826,-16.324 -74.478,-40.921 -1.742,-2.739 -3.335,-5.571 -4.768,-8.498 -2.534,-1.12 -1.617,-4.794 -3.453,-5.715 C 71.121,403.042 55.5,388.337 54.58,368.125 c -0.919,-17.459 11.028,-34.92 29.404,-38.593 8.269,-0.92 16.541,0.917 23.89,5.513 7.351,5.514 11.029,13.782 11.944,22.052 0,13.784 -11.944,25.728 -26.645,22.971 -6.431,-1.839 -11.944,-7.349 -11.944,-14.703 0,-9.187 9.188,-11.943 17.457,-12.864 -4.595,-7.349 -14.702,-6.431 -21.133,-1.835 -4.595,4.596 -7.352,10.108 -7.352,15.62 0.92,12.863 9.191,24.812 22.972,26.647 12.861,1.837 24.81,-2.758 33.079,-12.865 14.703,-20.215 6.432,-46.863 -12.879,-59.311 -3.887,-2.707 -4.654,-3.823 -5.959,-5.066 5.267,-5.875 11.315,-11.035 17.978,-15.328 -11.206,-14.565 -17.873,-32.805 -17.873,-52.604 0,-47.705 38.67,-86.376 86.373,-86.376 1.899,0 3.781,0.07 5.648,0.188 5.432,-9.59 12.641,-18.039 21.185,-24.898 2.468,-1.98 5.027,-3.885 7.664,-5.836 -0.142,-24.592 14.558,-51.239 42.125,-51.239 10.109,0.919 20.215,4.597 27.568,12.866 9.188,11.025 10.108,26.645 1.837,38.592 -10.108,13.784 -30.322,14.701 -39.511,0.919 -3.677,-6.433 -4.595,-14.702 0.917,-20.217 1.837,-1.835 4.596,-2.754 6.432,-3.673 3.676,-0.923 8.27,1.838 10.11,4.594 0.917,1.837 0,3.675 -0.922,4.594 -3.673,0 -6.431,1.836 -5.512,5.51 1.839,1.842 3.678,4.596 6.434,5.515 14.7,0.921 18.379,-15.619 11.944,-25.727 -11.944,-18.376 -36.754,-10.107 -45.025,6.433 -7.351,16.538 0.92,35.836 15.622,44.102 22.969,12.868 47.782,-1.835 60.569,-21.659 2.736,1.461 5.329,3.246 7.795,5.226 9.618,7.717 17.538,17.457 23.142,28.568 1.83,-0.118 3.679,-0.183 5.537,-0.183 11.071,0 21.659,2.084 31.387,5.883 3.242,1.264 6.391,2.719 9.43,4.351 19.683,-25.703 53.459,-42.589 83.011,-25.703 23.22,12.667 35.885,40.108 27.443,65.441 -10.554,29.555 -48.554,46.441 -73.885,25.331 -10.555,-10.553 -18.999,-23.22 -16.886,-40.108 4.222,-27.441 33.776,-40.108 56.995,-27.441 12.666,8.442 14.778,25.331 12.666,40.105 8.444,-12.664 6.333,-27.441 -2.111,-37.997 -23.22,-29.553 -67.55,-14.775 -75.995,21.111 -4.222,18.999 2.111,37.998 16.889,50.662 23.219,21.11 59.106,16.891 80.337,-4.465 6.584,-6.731 9.199,-7.886 11.831,-9.361 1.639,6.65 2.51,13.601 2.51,20.756 0,5.739 -0.565,11.348 -1.633,16.77 9.573,5.428 18.011,12.629 24.862,21.162 1.973,2.465 3.88,5.026 5.832,7.664 15.338,2.748 31.878,4.583 41.985,19.285 9.19,13.782 9.19,30.323 -0.918,42.27"
           style="fill:#176fc1;fill-opacity:1;fill-rule:nonzero;stroke:none"
           id="path11469"
           inkscape:connector-curvature="0" /></g></g></g></svg>